<svg xmlns="http://www.w3.org/2000/svg" viewBox="0 0 180 200" width="180" height="200"><defs><style>.cls-2{fill-rule:evenodd;fill:#003da4}</style></defs><path d="M107.8694 59.8504c5.0923-3.3399 7.4342-7.452 7.4342-11.9718 0-9.4511-9.682-17.3336-13.5035-21.6787-6.0547-6.8841-9.715-13.7507-11.1661-22.4457-6.64 11.9301-7.5606 22.8308-1.5776 32.4896-5.2455-3.6138-8.8895-8.9433-7.4042-19.9561-6.4632 9.2077-7.9402 18.416-3.3987 27.6224-3.8434-2.677-6.0685-7.4631-6.6759-14.3586-7.561 11.2768-9.1894 21.62-.2428 30.299h36.5346Z" style="fill-rule:evenodd;fill:#d40301"/><path d="M67.2594 71.107c-1.9194 0-3.4756-1.5562-3.4756-3.4756 0-1.9189 1.5562-3.4752 3.4756-3.4752h45.0174c1.9194 0 3.4752 1.5563 3.4752 3.4752 0 1.9194-1.5558 3.4757-3.4752 3.4757H67.2594Zm7.6598 12.0613c7.0532 3.096 12.5104 14.1248 14.767 21.3976 2.2529-7.26 7.7962-18.2632 14.8306-21.3811.6271-.2782 1.1546-.2992 1.7913-.4937 1.4181-.4386 2.4482-1.76 2.4482-3.3214 0-1.9193-1.5557-3.4756-3.475-3.4756H74.0916c-1.9194 0-3.4757 1.5563-3.4757 3.4756 0 1.5888 1.0677 2.9295 2.5242 3.3434.634.1794 1.151.1798 1.779.4552Zm32.4334 46.747c0-4.9477-2.0465-9.4183-5.338-12.612 1.8895-1.5606 2.1007-3.9677 2.3348-5.4587 1.3138-8.3644 8.5651-14.7578 17.299-14.7578 7.929 0 17.3524 6.4586 17.3524 16.42 0 6.6257-2.9096 15.529-11.0386 15.529-7.7621 0-9.4455-10.5216-.9709-12.5386-10.2877-.9757-18.6987 7.9123-14.2423 19.7344-5.0081 4.131-2.4121 12.6605 3.6293 14.278-2.113-6.9027 2.0095-6.755 8.0733-6.7294 6.0638.0252 8.7092-1.9492 13.0631-4.0927 3.9994 4.7454 9.0019 6.9437 13.8868 6.9437 8.4383 0 18.1423-6.2029 18.1423-16.918 0-5.594-3.7652-16.399-14.907-16.399-11.736 0-12.5135 11.129-12.5135 12.1124 0 5.5395 3.9603 10.6055 12.566 9.122l.2423 2.0456c-9.2882 2.3384-14.9378-4.402-14.9378-11.577 0-2.6607 1.1253-11.1214 11.438-13.313-1.5852-15.699-14.6874-27.0264-29.7839-27.0264-13.9435 0-25.6586 9.5408-28.979 22.4497-.5051 1.9625-.6236 4.4898-2.9828 5.1019-2.359-.6121-2.4776-3.1394-2.9827-5.1019-3.3204-12.909-15.0355-22.4497-28.979-22.4497-15.0965 0-28.1987 11.3273-29.7839 27.0264 10.3127 2.1916 11.438 10.6523 11.438 13.313 0 7.175-5.6496 13.9154-14.9379 11.577l.2424-2.0455c8.6056 1.4834 12.566-3.5826 12.566-9.1221 0-.9833-.7775-12.1124-12.5135-12.1124-11.1418 0-14.907 10.805-14.907 16.399 0 10.7151 9.704 16.918 18.1423 16.918 4.885 0 9.8874-2.1983 13.8868-6.9437 4.3538 2.1435 6.9993 4.118 13.063 4.0927 6.0638-.0256 10.1863-.1733 8.0734 6.7293 6.0414-1.6174 8.6374-10.1468 3.6293-14.2779 4.4564-11.822-3.9546-20.71-14.2424-19.7344 8.4747 2.017 6.7913 12.5386-.9709 12.5386-8.129 0-11.0385-8.9033-11.0385-15.529 0-9.9614 9.4233-16.42 17.3524-16.42 8.7339 0 15.9852 6.3934 17.299 14.7578.2341 1.491.4452 3.8981 2.3347 5.4587-3.2914 3.1937-5.338 7.6643-5.338 12.612 0 9.704 7.9625 17.5743 17.6665 17.5743 9.7041 0 17.6665-7.8702 17.6665-17.5743Zm-17.6665 6.8702c-3.7943 0-6.8702-3.076-6.8702-6.8703s3.0759-6.8702 6.8702-6.8702 6.8703 3.0759 6.8703 6.8702-3.076 6.8703-6.8703 6.8703ZM58.8564 196.7432h-7.915l-15.4687-26.9043v26.9043h-7.375v-37.876h8.2998l15.084 26.4414v-26.4414h7.375v37.876Zm6.7579-37.876h7.8632v37.876h-7.8632v-37.876Zm31.9921 38.9297c-5.414 0-9.5507-1.4737-12.411-4.42-3.838-3.6142-5.756-8.8222-5.756-15.623 0-6.9385 1.918-12.1455 5.756-15.623 2.8603-2.9463 6.997-4.42 12.411-4.42 5.4131 0 9.5499 1.4737 12.4112 4.42 3.8193 3.4775 5.7304 8.6845 5.7304 15.623 0 6.8008-1.911 12.0088-5.7304 15.623-2.8613 2.9463-6.998 4.42-12.4112 4.42Zm7.4776-10.1758c1.833-2.3125 2.749-5.6016 2.749-9.8672 0-4.248-.9209-7.5332-2.7617-9.8545-1.8418-2.3213-4.33-3.4824-7.4649-3.4824s-5.6367 1.1572-7.5039 3.4697-2.8007 5.6016-2.8007 9.8672.9336 7.5547 2.8007 9.8672 4.3692 3.4687 7.504 3.4687 5.6269-1.1562 7.4775-3.4687Zm43.4258 6.2959c-2.8262 2.587-6.4414 3.8799-10.8438 3.8799-5.4472 0-9.7305-1.7471-12.8476-5.2422-3.1182-3.5117-4.6768-8.3252-4.6768-14.4414 0-6.6123 1.7725-11.708 5.3193-15.289 3.083-3.1173 7.0059-4.6768 11.7686-4.6768 6.372 0 11.0322 2.0908 13.9785 6.2695 1.627 2.3476 2.501 4.7031 2.6211 7.0674h-7.914c-.5147-1.8164-1.1739-3.1865-1.9796-4.1123-1.4384-1.6446-3.5712-2.4668-6.3974-2.4668-2.878 0-5.1485 1.1611-6.8096 3.4824-1.662 2.3213-2.4931 5.6064-2.4931 9.8545s.8779 7.4307 2.6337 9.5459c1.7559 2.1162 3.9873 3.1738 6.6944 3.1738 2.7754 0 4.8906-.9082 6.3467-2.7246.8046-.9756 1.4736-2.4404 2.0048-4.3936h7.837c-.6856 4.129-2.4327 7.4864-5.2422 10.0733Z" class="cls-2"/></svg>